# xmcd CD database file
#
# Track frame offsets:
#	150
#	22652
#	40840
#	53940
#	72802
#	93070
#	109807
#	127797
#	145240
#	162315
#
# Disc length: 2252 seconds
#
# Revision: 0
# Processed by: cddbd v1.5.1PL0 Copyright (c) Steve Scherf et al.
# Submitted via: CDex 1.50
#
DISCID=7608ca0a
DTITLE=Jia Peng Fang - ROMAN 浪漫
DYEAR=2003
DGENRE=Easy Listening
TTITLE0=武蔵(メインテーマ)
TTITLE1=ニューシネマパラダイス
TTITLE2=愛のテーマ
TTITLE3=デポラのテーマ
TTITLE4=ロマンス
TTITLE5=愛を奏でて
TTITLE6=トトとアルフレード
TTITLE7=マレーナ
TTITLE8=哀愁ノテーマ
TTITLE9=武蔵(メインテーマ)リプライズ
EXTD=YEAR: 2003
EXTT0=
EXTT1=
EXTT2=
EXTT3=
EXTT4=
EXTT5=
EXTT6=
EXTT7=
EXTT8=
EXTT9=
PLAYORDER=
